<svg width="269" height="98" viewBox="0 0 269 98" fill="none" xmlns="http://www.w3.org/2000/svg">
<g filter="url(#filter0_dd_356_759)">
<path d="M90.4309 35.4798C90.2803 35.507 90.0572 35.6997 89.9416 35.8219C89.4363 36.3432 87.8395 39.384 87.3986 40.2338C86.697 41.594 85.0868 43.8203 86.5599 45.0557C87.1191 45.5254 90.2776 46.2177 88.7803 47.491C88.0411 48.1209 83.0896 47.5318 81.7159 47.5861C80.724 47.6268 76.7966 48.4331 76.302 47.5969C75.4203 46.1064 78.6676 45.4928 79.5574 45.0149C80.4471 44.5371 81.439 43.6927 82.0923 42.8864C85.2535 38.9822 88.6486 32.8327 91.3798 28.4262C93.5894 24.8614 95.8071 21.2613 97.9119 17.6313C98.2399 17.0666 98.6539 15.8231 99.0302 15.4403C99.5651 14.8973 102.105 14.4629 103.044 14.0203C103.665 13.7298 105.831 11.8673 106.197 12.223C106.299 12.3207 106.111 14.5715 106.398 15.0493C106.576 23.3138 106.197 31.8363 106.576 40.0763C106.613 40.9261 106.675 42.4167 106.791 43.1823C107.065 44.9986 109.199 45.5688 110.511 46.3914C111.616 45.5905 113.463 45.7127 114.431 44.6701C115.296 43.7362 115.823 41.1216 116.205 39.8184C118.283 32.7078 119.992 25.4777 122.043 18.3589C122.366 15.3778 121 16.3851 119.476 15.329C117.952 14.2728 120.14 13.3579 121.396 13.385C123.135 13.4257 125.07 13.6972 126.839 13.7135C129.032 13.7325 131.61 13.3253 133.782 13.5832C134.438 13.6619 134.648 13.9172 134.352 14.5661C133.823 15.7254 130.85 15.5625 129.699 17.6856C128.742 19.4531 126.82 26.9791 126.412 29.2163C126.352 29.5394 126.081 30.2778 126.613 30.2045C127.076 30.1421 127.871 29.447 128.261 29.1294C132.5 25.6677 136.449 21.3617 140.643 17.7942C142.005 15.7199 139.008 15.9724 138.734 15.0167C138.5 14.2077 139.495 13.6674 140.156 13.5859C143.304 13.2085 147.992 13.4882 151.376 13.385C152.304 13.3552 154.621 13.7624 153.129 14.9652C152.449 15.5163 149.285 15.9616 148.134 16.3688C142.589 18.3345 137.962 23.7374 133.307 27.1854C132.901 27.5465 132.782 28.0895 133.051 28.5782C135.836 33.077 137.847 38.5532 140.68 42.9597C141.132 43.6629 141.952 44.9389 142.769 45.167C144.048 45.5226 145.979 43.2067 146.683 42.2592C152 35.1296 157.47 25.6107 161.959 17.8241C162.306 17.2213 162.871 15.6711 163.269 15.291C163.551 15.0195 166.524 14.3624 167.384 13.9253C168.244 13.4882 170.301 11.2836 170.449 12.8963L170.846 42.3895C171.161 45.0991 172.672 45.0747 174.596 46.3833C175.435 45.6502 176.664 45.6747 177.642 45.1914C179.368 44.3389 179.548 42.6692 180.059 40.9859C182.36 33.392 184.096 25.5944 186.284 17.9652C186.376 17.0476 186.443 16.4747 185.599 15.9643C184.905 15.5435 182.72 15.386 183.586 14.0665C184.451 12.747 188.045 13.738 189.491 13.795C194.537 13.9959 207.69 10.9605 207.007 19.9391C206.728 23.6125 204.44 26.7022 201.384 28.5239C200.806 28.8687 198.698 29.6995 198.491 29.9004C198.362 30.0281 198.319 30.1231 198.292 30.3023C198.169 31.1276 200.8 37.774 201.362 38.9306C202.249 40.7578 203.679 43.5244 205.69 44.1326C206.416 44.3525 209.572 44.4828 209.695 44.681C209.948 45.0855 209.179 46.177 209.803 46.0141C211.378 45.6014 213.488 44.9796 214.069 43.2855C215.87 35.2192 219.475 26.5718 220.883 18.5137C221.082 17.3734 221.561 16.2602 220.074 16.1299C218.588 15.9996 216.752 16.8657 215.539 17.8078C214.797 18.3834 211.499 22.5319 210.574 21.2178C210.045 20.4685 213.297 16.2874 213.816 15.2855C214.254 14.4439 215.082 11.7153 215.76 11.3895C217.182 10.7053 216.969 11.9325 217.483 12.6818C218.093 13.5696 219.44 13.7244 220.445 13.795C224.203 14.0556 230.464 14.0991 234.19 13.7841C235.047 13.7108 236.203 13.4502 236.996 13.0999C237.66 12.8067 239.765 10.9171 240.289 11.4411C240.891 12.0438 238.235 16.5942 237.875 17.501C237.515 18.4078 236.881 22.1518 235.582 21.7771C234.883 21.5762 234.945 18.8015 234.789 18.0711C234.351 16.0213 232.074 15.8638 230.338 16.1408C228.808 16.3824 228.039 19.4992 227.617 20.8187C225.628 27.0578 223.695 34.3232 222.158 40.7062C221.924 41.6809 221.305 43.3751 221.607 44.2792C221.934 45.262 224.249 45.7724 225.066 46.386C226.163 45.6421 227.499 45.4005 228.623 44.6973C230.765 43.3533 232.854 39.5415 234.297 37.3342C238.418 31.0299 242.561 24.351 246.321 17.8241C246.668 17.2213 247.233 15.6711 247.63 15.291C247.915 15.0195 250.886 14.3624 251.746 13.9253C252.606 13.4882 254.614 11.251 254.81 12.8963C255.12 15.5 254.746 19.1463 254.794 21.902C254.91 28.7656 255.27 35.6916 255.211 42.585C255.55 45.4005 257.243 44.8738 258.665 46.1335C259.437 46.8204 258.759 47.6729 257.805 47.787C254.082 48.2322 249.445 46.9344 245.62 47.7924C244.633 47.977 240.682 47.8738 242.735 46.2476C244.265 45.0367 247.216 45.8186 247.625 42.7859C247.759 41.7949 247.813 39.965 247.843 38.9034C247.859 38.3876 247.977 35.4771 247.544 35.4771H239.031C238.837 35.4771 238.337 35.9875 238.19 36.1911C237.561 37.0491 234.59 42.566 234.499 43.4131C234.23 45.8973 236.915 45.2783 237.488 46.2231C238.544 47.9662 235.149 47.8195 234.381 47.7978C232.975 47.7544 231.62 47.5182 230.123 47.5861C228.725 47.6512 226.176 48.33 224.953 47.7788C224.781 47.7028 224.83 47.3743 224.717 47.3987C221.397 48.1101 217.754 47.529 214.254 47.5833C212.687 47.6078 211.064 47.9309 209.416 47.8005C209.005 47.768 208.722 47.4177 208.491 47.434C208.225 47.453 206.596 48.3055 205.849 48.4739C197.798 50.2929 195.706 45.5824 193.798 38.9496C193.4 37.5704 192.61 32.7349 191.903 32.0697C191.196 31.4046 190.231 31.2824 189.776 32.2462C189.161 33.5494 187.016 41.3741 186.887 42.8076C186.779 43.9914 186.803 44.6864 187.908 45.2891C189.013 45.8919 191.459 45.7588 189.741 47.6485L158.384 47.7517C157.707 47.5508 157.849 46.7525 158.253 46.3317C159.548 44.9878 162.933 46.0466 163.274 42.6121C163.379 41.556 163.446 39.9867 163.478 38.9116C163.494 38.3957 163.613 35.4852 163.18 35.4852H154.667C154.282 35.4852 153.777 36.4056 153.57 36.7233C152.841 37.8446 150.25 42.3379 150.132 43.4212C149.863 45.9055 152.548 45.2864 153.121 46.2313C153.634 47.0783 152.774 47.7055 151.962 47.8005C150.078 48.0205 147.798 47.4612 145.758 47.5942C141.218 47.8901 137.454 47.4883 132.987 47.5942C132.234 47.6132 128.903 48.1481 128.533 47.6159C127.226 45.7426 132.858 45.8077 131.922 43.6113L126.788 32.9657C125.624 31.2444 125.387 32.8924 125.022 34.0789C124.409 36.0581 122.67 42.0366 122.664 43.8176C122.664 44.2466 122.812 44.7652 123.121 45.0719C123.89 45.8403 126.113 45.824 125.449 47.2141C124.828 48.5173 119.178 47.472 117.742 47.4829C115.823 47.4992 112.681 48.3463 110.979 47.9553C110.64 47.8766 110.334 47.4829 110.164 47.4747C110.027 47.4666 109.506 47.7897 109.014 47.8114C105.648 47.958 102.022 47.5263 98.549 47.5969C97.799 47.6132 94.1943 48.1481 93.8421 47.5806C93.7185 47.3797 93.8125 46.8666 93.9174 46.6304C94.5706 45.1751 98.4442 46.1308 99.0221 42.995C99.2775 41.6185 99.4684 37.2744 99.2318 35.9767C99.2022 35.8138 99.0786 35.488 98.9415 35.488H90.4282L90.4309 35.4798ZM194.688 16.396C193.623 17.444 191.362 25.7601 191.005 27.6226C190.647 29.4851 191.053 29.7918 192.978 29.6127C197.499 29.1945 200.018 22.7491 199.663 18.7635C199.44 16.2466 196.373 14.7398 194.69 16.396H194.688ZM92.076 32.5503C92.3233 32.8055 98.1834 32.5503 99.1377 32.5503C99.3501 32.5503 99.4146 32.0725 99.4388 31.877C99.7264 29.3955 99.3528 26.0723 99.42 23.4577C99.4496 22.369 99.7211 21.3454 99.6216 20.14C99.5974 19.8495 99.7748 19.578 99.334 19.654L92.1835 31.782C92.0814 31.9421 92.0142 32.4879 92.076 32.553V32.5503ZM163.666 19.654C163.414 19.6676 163.357 19.9445 163.247 20.1074C161.121 23.2487 158.18 28.247 156.478 31.6381C156.379 31.8363 155.919 32.5503 156.414 32.5503H163.379C163.4 32.5503 163.669 32.2788 163.669 32.2571V19.654H163.666ZM247.832 32.5503C247.77 32.3575 248.026 32.1268 248.026 32.0616V19.654C247.773 19.6676 247.716 19.9445 247.606 20.1074C245.477 23.2541 242.794 27.8615 241.028 31.2444C240.91 31.4724 240.238 32.5476 240.773 32.5476H247.835L247.832 32.5503Z" fill="#FFF2E3"/>
<path d="M81.0466 8.32154C80.81 8.10706 75.9391 8.63919 75.173 8.73965C68.3102 9.62746 55.8964 12.128 53.6787 19.8576C52.9609 22.3582 54.0039 24.8695 56.6571 25.4288C57.5281 25.6107 58.2861 25.2741 58.9904 25.6135C52.3238 28.5185 46.461 20.5961 49.8642 14.4412C54.09 6.79841 68.6838 5.73142 76.5036 5.19656C87.1675 4.46622 98.0706 5.21285 108.616 4.40921C109.288 4.35762 113.447 3.26618 112.96 4.87619C112.863 5.19656 108.764 8.10162 108.146 8.23466C106.425 8.60119 105.014 7.99845 103.401 7.92243C93.9738 7.47446 91.197 9.37768 86.5008 17.2485C72.0306 41.5017 57.0577 82.5962 22.8941 81.9934C12.2357 81.8061 6.84597 72.5751 11.9373 63.0969C17.7464 52.2803 30.7811 46.1254 42.8294 47.2087C43.8804 47.3037 45.5847 48.0042 43.6143 48.1888C33.8725 49.1119 25.7463 53.4722 20.7168 62.1901C15.8862 70.5605 18.4318 79.102 29.2623 77.4648C43.996 75.2385 56.3614 53.7302 63.4017 41.7922C69.0494 32.2137 74.9983 21.598 79.6649 11.5171C79.8181 11.1832 81.1729 8.43829 81.0466 8.32154Z" fill="#FFF2E3"/>
<path d="M133.301 58.1611C133.049 58.5113 134.925 62.087 135.538 62.4209C135.742 62.5322 137.328 62.8282 136.772 63.42C136.702 63.4933 135.038 63.6318 134.745 63.6155C133.739 63.5612 132.68 63.249 132.172 62.3015C131.799 61.6037 131.323 59.2362 131.065 58.924C130.807 58.6117 130.36 58.5466 130.17 59.0054C130.035 59.3285 129.229 61.9947 129.234 62.1603C129.269 62.9775 130.331 62.782 130.385 62.8363C130.457 62.9069 130.411 63.3739 130.194 63.5232C129.629 63.9142 128.226 63.4065 127.578 63.4065C127.188 63.4065 124.777 63.9848 124.777 63.325C124.777 62.9313 126.016 62.7874 126.315 62.5377C126.578 62.3205 126.721 61.8318 126.844 61.5114C127.326 60.2761 128.93 55.4108 129.022 54.3139C129.121 53.0948 128.03 53.4831 127.869 53.2577C127.17 52.2939 130.452 52.8532 130.653 52.8505C131.562 52.8369 132.538 52.5546 133.578 52.674C136.358 52.9944 137.07 55.8261 134.823 57.4497C134.492 57.6886 133.35 58.0932 133.301 58.1611ZM131.979 53.5048C131.761 53.7329 130.721 57.2895 130.761 57.6561C130.874 58.6851 132.721 57.6751 133.199 56.79C134.221 54.9085 133.059 52.3672 131.979 53.5075V53.5048Z" fill="#FFF2E3"/>
<path d="M205.806 52.5329C211.892 51.9573 211.394 60.9494 206.109 63.1974C202.311 64.8129 199.263 62.8906 199.658 58.6362C199.943 55.5628 202.79 52.8179 205.806 52.5329ZM205.792 53.3066C204.241 53.6352 202.773 56.6244 202.373 58.0606C200.741 63.9251 204.644 64.7423 206.913 59.7168C207.666 58.0525 208.945 52.6415 205.792 53.3094V53.3066Z" fill="#FFF2E3"/>
<path d="M220.066 52.674C220.491 52.8071 223.176 59.5674 223.649 60.4878L224.324 58.9267C224.48 57.7538 225.951 54.599 224.996 53.7546C224.776 53.5591 223.268 53.274 223.649 52.8722C224.066 52.4324 225.488 52.8939 226.066 52.8885C226.582 52.8831 228.926 52.2233 228.278 53.2442C228.227 53.3256 227.187 53.4397 226.768 53.9691C226.348 54.4985 224.448 60.629 224.416 61.3784C224.359 62.6571 225.115 62.7847 225.193 63.1323C225.351 63.8409 222.684 63.7839 222.281 63.3332L218.617 55.4108C218.193 57.3086 216.628 60.1295 216.547 61.9947C216.504 63.0047 217.741 62.6951 217.84 63.1323C217.883 63.3223 217.62 63.6182 217.55 63.6182H213.873C213.83 63.6182 213.55 63.401 213.677 63.2273C213.975 62.8065 214.87 62.858 215.365 61.9974C215.859 61.1367 217.849 55.761 217.991 54.8759C218.053 54.4904 218.125 54.0587 217.859 53.7302C217.413 53.1817 216.021 53.741 216.292 52.6767C217.254 52.8614 219.257 52.4242 220.066 52.6767V52.674Z" fill="#FFF2E3"/>
<path d="M80.5628 63.6182C80.4122 63.5748 80.1676 63.173 80.2724 63.0345C80.3396 62.9449 81.4848 62.858 82.052 61.8019C82.509 60.9548 84.5896 55.3048 84.681 54.4822C84.7132 54.2025 84.646 53.7953 84.396 53.6351C84.0385 53.407 82.0842 53.3446 82.9767 52.769C83.3073 52.5572 86.4175 52.598 86.767 52.8532L90.4255 60.295C90.7884 59.1574 92.4685 54.4985 91.6406 53.6948C91.4658 53.5238 89.947 53.3989 90.3314 52.8722C90.6029 52.5002 92.2427 52.8858 92.7534 52.8858C92.9309 52.8858 95.7534 52.4106 94.9739 53.2604C94.8206 53.4261 93.8341 53.1437 93.1271 54.4252C92.6809 55.2343 91.0814 60.2896 90.9497 61.229C90.7884 62.3883 92.0707 63.1512 91.8771 63.4227C91.6997 63.6698 89.2427 63.7675 88.8315 63.3739C87.7078 61.1448 86.9793 58.7068 85.9148 56.4533C85.8288 56.2714 85.4283 55.0822 85.1084 55.4134C84.7912 57.371 83.3127 59.8661 83.181 61.791C83.095 63.0562 84.2347 62.5838 84.5251 63.1322C84.6648 63.3956 84.1245 63.6182 84.0439 63.6182C83.2697 63.6182 81.1084 63.7757 80.5601 63.6182H80.5628Z" fill="#FFF2E3"/>
<path d="M141.704 63.6182C141.554 63.5748 141.309 63.173 141.414 63.0345C141.481 62.9449 142.626 62.858 143.194 61.8019C143.651 60.9548 145.731 55.3048 145.823 54.4822C145.855 54.2025 145.788 53.7953 145.538 53.6351C145.18 53.407 143.226 53.3446 144.118 52.769C144.449 52.5572 147.559 52.598 147.909 52.8532L151.567 60.295C151.93 59.1574 153.61 54.4985 152.782 53.6948C152.607 53.5238 151.089 53.3989 151.473 52.8722C151.745 52.5002 153.384 52.8858 153.895 52.8858C154.072 52.8858 156.895 52.4106 156.115 53.2604C155.962 53.4261 154.976 53.1437 154.269 54.4252C153.822 55.2343 152.223 60.2896 152.091 61.229C151.93 62.3883 153.212 63.1512 153.019 63.4227C152.841 63.6698 150.384 63.7675 149.973 63.3739C148.849 61.1448 148.121 58.7068 147.056 56.4533C146.97 56.2714 146.57 55.0822 146.25 55.4134C145.933 57.371 144.454 59.8661 144.323 61.791C144.237 63.0562 145.376 62.5838 145.667 63.1322C145.806 63.3956 145.266 63.6182 145.186 63.6182C144.411 63.6182 142.25 63.7757 141.702 63.6182H141.704Z" fill="#FFF2E3"/>
<path d="M121.581 52.674C121.659 52.674 121.82 52.3808 122.068 52.5627C122.492 52.8804 121.909 55.2289 121.578 55.408C121.248 55.5872 121.285 55.1284 121.24 54.9791C121.108 54.5528 121.041 53.6379 120.584 53.4885C120.073 53.3229 118.463 53.3718 118.108 53.8578C117.979 54.037 116.896 57.428 117.035 57.5611C117.234 57.7538 119.213 57.5611 119.651 57.1755C119.718 57.1158 120.906 55.6171 120.691 56.6597C120.514 57.523 119.85 59.1086 119.452 59.9041C118.909 59.9503 119.28 59.1711 119.068 58.7312C118.81 58.1964 117.089 58.1746 116.74 58.533C116.56 58.7176 115.691 61.6499 115.689 61.9838C115.678 63.4038 118.586 62.9314 119.428 62.2227C119.667 62.0218 120.611 60.3467 120.906 60.6888C121.218 61.0498 120.097 63.6183 119.844 63.6183H111.234C111.019 62.7549 111.92 62.9802 112.468 62.6164C113.097 62.1983 113.358 60.8055 113.608 60.0562C114.014 58.8425 115.183 55.5682 115.285 54.5121C115.422 53.0921 114.431 53.5727 114.331 53.1627C114.285 52.9754 114.552 52.6767 114.621 52.6767C116.941 52.6767 119.269 52.7229 121.586 52.6767L121.581 52.674Z" fill="#FFF2E3"/>
<path d="M157.376 63.6182C157.279 63.5938 157.094 63.42 157.18 63.2273C157.352 62.8417 158.766 62.5458 159.279 62.22C159.64 61.9919 159.976 61.5874 160.279 61.2779C162.57 58.9321 164.79 55.913 166.812 53.3202C167.406 53.3392 169.594 51.9301 169.623 52.9238L167.9 61.9621C167.887 62.2091 167.951 62.3639 168.11 62.5458C168.336 62.8037 169.454 62.9313 169.271 63.3223C168.941 64.0282 166.857 63.42 166.266 63.4146C166.059 63.4146 162.763 64.0119 163.47 63.0345C163.58 62.8798 164.79 62.9748 165.223 61.9702C165.328 61.7259 165.86 59.8091 165.79 59.714C165.637 59.5023 163.357 59.6407 162.986 59.714C162.438 59.8199 160.814 62.1196 161.169 62.6191C161.231 62.706 162.045 62.8255 162.113 63.1323C162.156 63.3223 161.892 63.6182 161.822 63.6182C160.777 63.6182 158.18 63.8192 157.374 63.6182H157.376ZM165.967 58.7122C166.123 58.5765 166.637 55.3429 166.758 54.8243L163.666 58.6362C164 58.7638 165.865 58.8018 165.967 58.7122Z" fill="#FFF2E3"/>
<path d="M229.451 63.6182C228.87 63.0182 230.698 62.6924 230.999 62.5431C233.383 61.3621 237.069 55.4406 239.136 53.3691C239.794 53.2795 241.044 52.503 241.539 52.4731C242.034 52.4432 241.854 52.97 241.811 53.3365C241.475 56.1492 240.48 59.1195 240.096 61.9566C240.176 62.8092 241.558 62.8146 241.448 63.325C241.297 64.0173 239.087 63.4146 238.633 63.4173C238.149 63.4228 236.066 63.849 235.838 63.6182C235.308 63.0861 236.789 62.6924 236.996 62.5431C237.515 62.1576 238.265 59.9394 237.784 59.6027C237.641 59.5023 235.472 59.6733 235.2 59.7521C234.789 59.8688 233.394 61.7639 233.354 62.1929C233.297 62.7956 234.292 62.7902 234.483 63.135C234.628 63.3956 234.079 63.621 234.002 63.621C233.37 63.621 229.614 63.7866 229.456 63.621L229.451 63.6182ZM235.835 58.7312C236.391 58.6389 237.95 58.9511 238.257 58.5412C238.544 58.1556 238.829 55.6714 238.929 55.0198L235.835 58.7312Z" fill="#FFF2E3"/>
<path d="M186.884 52.0903C187.021 52.2423 185.849 55.294 185.701 55.3863C184.814 55.9429 185.413 54.0261 184.521 53.5971C184.008 53.3501 182.865 53.274 182.545 53.8578L179.951 62.0055C179.744 62.706 180.768 62.6843 180.991 63.0237C181.682 64.0717 178.535 63.4201 178.276 63.4201C177.645 63.4201 176.08 63.9685 175.564 63.4228C175.258 63.0997 175.462 63.116 175.715 62.9857C176.5 62.5865 176.908 62.9123 177.384 61.9322C177.897 60.8707 179.559 55.4651 179.709 54.3139C179.86 53.1627 179.454 53.274 178.357 53.5374C177.626 53.7139 175.72 55.6741 175.47 55.4053C175.161 55.0768 176.997 52.7853 177.008 52.169C177.61 51.8324 177.981 52.4514 178.518 52.6197C179.529 52.9347 184.287 52.8369 185.422 52.6577C185.779 52.6007 186.763 51.9518 186.884 52.0849V52.0903Z" fill="#FFF2E3"/>
<path d="M110.455 52.0903C110.603 52.2423 109.178 55.37 109.003 55.4108C108.299 55.5737 108.697 53.9528 108.199 53.6379C107.777 53.3691 106.296 53.3256 105.992 53.7872L103.509 61.9892C103.044 63.0888 105.097 62.5323 104.463 63.5287H99.0356C98.7318 63.306 98.9146 63.2001 99.1592 63.0562C99.7157 62.725 100.536 62.7685 100.821 62.0001L103.288 53.9311C103.307 53.6976 103.189 53.5591 102.976 53.4885C101.304 52.9374 99.549 55.4922 99.1404 55.4108C98.7964 55.3429 98.9281 55.1094 99.0033 54.8895C99.2722 54.1048 100.243 53.2062 100.476 52.2668C101.001 51.7998 101.353 52.465 101.896 52.6252C103.036 52.9618 107.53 52.8424 108.794 52.6577C109.194 52.598 110.31 51.941 110.455 52.0903Z" fill="#FFF2E3"/>
<path d="M254.313 52.674C254.531 52.7283 254.638 52.9374 254.418 53.1709C253.913 53.7003 253.294 53.2225 252.762 54.2352C252.23 55.2479 250.845 59.8987 250.628 61.0661C250.509 61.696 250.275 62.687 251.025 62.8363C251.993 63.0291 253.399 62.5132 254.125 61.8616C254.509 61.5195 255.345 59.8715 255.765 60.2951C255.969 60.5014 254.781 63.6155 254.606 63.6155H246.189C246.085 63.6155 245.827 63.3956 246.085 63.1214C246.507 62.6761 247.547 62.7006 247.781 61.9051C247.923 60.8462 250.405 54.0587 250.133 53.6759C250.068 53.5863 249.257 53.4695 249.187 53.1627C249.144 52.9727 249.407 52.6767 249.477 52.6767C250.614 52.6767 253.431 52.4595 254.313 52.6767V52.674Z" fill="#FFF2E3"/>
<path d="M196.268 52.674C196.489 52.7283 196.593 52.9347 196.373 53.1682C195.911 53.6596 195.265 53.4125 194.779 54.2922C194.231 55.2804 192.833 60.0154 192.585 61.2589C192.521 61.5847 192.378 62.3693 192.529 62.6083C192.58 62.6897 194.537 63.4146 192.798 63.6237C191.841 63.7377 190.478 63.5585 189.314 63.6237C188.825 63.6508 187.739 63.8137 188.048 63.1268C188.249 62.6789 189.279 63.1431 189.881 61.6553C190.349 60.5014 192.024 55.3402 192.104 54.3112C192.196 53.1682 191.239 53.5428 191.145 53.1573C191.099 52.97 191.365 52.6713 191.435 52.6713C192.572 52.6713 195.389 52.4541 196.271 52.6713L196.268 52.674Z" fill="#FFF2E3"/>
<path d="M78.0466 52.674C78.267 52.7283 78.3719 52.9347 78.1514 53.1682C77.6891 53.6596 77.0439 53.4125 76.5574 54.2922C76.009 55.2804 74.6112 60.0154 74.3639 61.2589C74.2993 61.5847 74.1569 62.3693 74.3074 62.6083C74.3585 62.6897 76.3155 63.4146 74.5762 63.6237C73.6193 63.7377 72.2564 63.5585 71.0924 63.6237C70.6032 63.6508 69.5172 63.8137 69.8263 63.1268C70.0279 62.6789 71.0575 63.1431 71.6596 61.6553C72.1273 60.5014 73.802 55.3402 73.8827 54.3112C73.9741 53.1682 73.0171 53.5428 72.923 53.1573C72.8773 52.97 73.1434 52.6713 73.2133 52.6713C74.3504 52.6713 77.1676 52.4541 78.0493 52.6713L78.0466 52.674Z" fill="#FFF2E3"/>
<path d="M59.3748 75.3417C59.0146 75.0539 60.1006 74.6928 60.2485 74.5652C60.7243 74.1579 62.9232 69.7976 62.7673 69.4718C62.6329 69.1895 61.321 68.918 61.8855 68.5976C62.2377 68.3994 64.3882 68.4998 64.5764 68.7198C64.7081 68.8745 64.6409 72.2683 64.8882 72.8004C66.0387 72.1434 67.1409 69.4745 67.9715 68.88C68.2833 68.6573 70.6032 68.3044 70.5951 68.7958C70.5924 69.0076 69.5844 69.2736 69.3505 69.6836C69.1381 70.0556 68.1919 74.2747 68.2672 74.6168C68.3236 74.8774 69.001 74.8258 68.8586 75.3417H65.1812C65.3963 74.8231 66.0065 74.929 66.3048 74.424C66.7188 73.7317 66.821 72.2466 67.114 71.4321C65.9016 72.4068 65.0737 73.9597 64.0253 75.0512C63.8882 75.1924 63.4151 75.7272 63.2484 75.5345C63.1006 75.3661 63.1812 71.0438 62.9581 71.0384C62.778 71.033 61.6302 73.9923 61.6947 74.4484C61.7485 74.8231 62.149 74.9453 62.0872 75.339C61.6544 75.2548 59.5227 75.453 59.3775 75.339L59.3748 75.3417Z" fill="#FFF2E3"/>
<path d="M79.6918 75.339C79.9579 74.7932 80.595 74.91 80.8987 74.3127C81.0869 73.9435 82.5546 69.4963 82.4014 69.2845C82.3691 69.241 81.2401 69.1352 81.6272 68.698C81.8745 68.4211 84.2051 68.9098 84.7965 68.5216C88.3744 68.5786 89.0572 72.404 86.4471 74.443C84.3584 76.072 82.1111 75.1625 79.6918 75.339ZM84.6487 69.127C84.353 69.184 84.2455 69.5288 84.1326 69.765C83.9283 70.1832 82.8396 73.748 82.8234 74.1281C82.7374 76.1399 85.6998 74.0358 86.0304 72.0728C86.1944 71.1063 86.068 68.8528 84.6487 69.127Z" fill="#FFF2E3"/>
<path d="M149.543 75.3417C149.081 74.9806 150.363 74.8638 150.524 74.6249C150.669 74.4077 151.973 70.2917 152.021 69.9198C152.134 69.0428 151.167 69.0428 151.478 68.7007C151.712 68.4428 152.909 68.7225 153.317 68.7143C153.726 68.7062 154.105 68.5025 154.473 68.5052C158.941 68.5215 158.607 73.9679 154.726 75.2059C153.457 75.6104 153.102 75.3661 151.968 75.3335C151.564 75.3227 149.637 75.415 149.543 75.3417ZM152.664 74.7253C152.968 75.2086 153.997 74.7118 154.365 74.4457C155.532 73.6068 156.231 71.3479 155.68 70.0175C155.408 69.3605 154.32 68.7007 153.93 69.5288C153.629 70.1668 152.82 72.9823 152.685 73.7289C152.64 73.9841 152.548 74.5407 152.664 74.7281V74.7253Z" fill="#FFF2E3"/>
<path d="M205.265 75.3417C205.577 74.8665 206.066 74.7661 206.397 74.2394C206.703 73.7534 207.781 70.8565 207.886 70.27C208.195 68.565 207.276 69.3279 207.005 69.089C206.335 68.4944 209.061 68.2473 209.663 68.7496C210.039 69.0646 210.967 72.0402 211.405 72.7488C211.496 72.8954 211.574 73.3135 211.841 72.9986C211.959 72.8601 212.515 69.7759 212.429 69.4148C212.365 69.1541 211.504 69.1596 211.453 68.698H214.55L213.435 69.8193C213.249 71.0384 212.013 73.3325 212.228 74.4538C212.279 74.7145 212.765 75.2086 212.612 75.3417C212.558 75.3878 211.319 75.5181 211.201 75.5019C210.174 75.3525 209.209 71.6221 208.738 70.6528C208.142 71.0601 207.187 74.3778 207.41 74.7308C207.537 74.9317 208.367 74.7362 208.16 75.3417H205.257H205.265Z" fill="#FFF2E3"/>
<path d="M118.197 75.3417C117.898 75.1028 118.973 74.6711 119.207 74.31C119.412 73.995 120.839 70.2402 120.874 69.9171C120.973 68.9858 119.557 69.0999 119.839 68.6981C120.143 68.2637 122.121 68.4863 122.543 68.899C122.965 69.3116 124.25 73.1995 124.484 73.1941C124.68 73.1887 125.567 69.8519 125.18 69.3605C124.89 68.9913 124.237 69.3089 124.387 68.6981H127.484C127.269 69.2166 126.656 69.1134 126.361 69.613C126.111 70.0366 124.914 74.1036 124.998 74.4186C125.057 74.6439 125.78 75.1516 125.549 75.339C125.463 75.4096 123.726 75.5046 123.471 75.2874C123.215 75.0702 121.629 70.3868 121.293 70.6502C121.143 70.7669 120.17 74.0901 120.172 74.3073C120.178 74.9806 121.041 74.7009 120.904 75.3417C120.471 75.2575 118.339 75.4557 118.194 75.3417H118.197Z" fill="#FFF2E3"/>
<path d="M163.473 75.3417C163.175 75.1028 164.25 74.6711 164.484 74.31C164.688 73.995 166.115 70.2402 166.15 69.9171C166.25 68.9858 164.833 69.0999 165.115 68.6981C165.419 68.2637 167.398 68.4863 167.82 68.899C168.242 69.3116 169.527 73.1995 169.76 73.1941C169.957 73.1887 170.844 69.8519 170.457 69.3605C170.166 68.9913 169.513 69.3089 169.664 68.6981H172.76C172.545 69.2166 171.932 69.1134 171.637 69.613C171.387 70.0366 170.191 74.1036 170.274 74.4186C170.333 74.6439 171.056 75.1516 170.825 75.339C170.739 75.4096 169.002 75.5046 168.747 75.2874C168.492 75.0702 166.906 70.3868 166.57 70.6502C166.419 70.7669 165.446 74.0901 165.449 74.3073C165.454 74.9806 166.317 74.7009 166.18 75.3417C165.747 75.2575 163.615 75.4557 163.47 75.3417H163.473Z" fill="#FFF2E3"/>
<path d="M75.5789 68.5487C80.1031 67.8021 79.7106 74.3561 75.5951 75.4014C70.7994 76.6205 70.9957 69.3062 75.5789 68.5487ZM75.966 69.1189C74.4929 69.4121 72.743 74.4376 74.4096 74.9263C75.7241 75.3091 77.1569 71.8475 77.1837 70.7425C77.2026 69.9714 76.8934 68.9343 75.966 69.1189Z" fill="#FFF2E3"/>
<path d="M200.763 68.5487C205.287 67.8021 204.894 74.3561 200.779 75.4014C195.983 76.6205 196.179 69.3062 200.763 68.5487ZM201.153 69.1189C199.679 69.4121 197.929 74.4376 199.596 74.9263C200.911 75.3091 202.343 71.8475 202.37 70.7425C202.389 69.9714 202.08 68.9343 201.153 69.1189Z" fill="#FFF2E3"/>
<path d="M114.132 68.7008C114.014 69.1759 113.371 69.1026 113.151 69.4175C112.713 70.042 111.584 73.8321 112.275 74.3833C114.135 75.8684 115.936 71.0764 115.858 69.7596C115.834 69.3605 114.984 68.7876 115.1 68.7008C115.21 68.6193 117.054 68.7741 117.487 68.5243C118.353 69.2112 117.291 68.9261 116.866 69.6021C115.565 71.6683 115.984 76.1643 111.955 75.4883C108.06 74.8367 111.576 70.6854 111.1 69.3279C111.014 69.0836 110.334 69.0428 110.651 68.698C110.968 68.3532 113.498 68.8854 114.132 68.698V68.7008Z" fill="#FFF2E3"/>
<path d="M237.717 68.9397C242.579 67.9188 239.692 76.3164 235.975 75.4992C233.179 74.8856 235.351 69.4338 237.717 68.9397ZM238.063 69.48C237.51 69.594 236.598 72.3823 236.504 72.985C236.45 73.3217 236.233 74.9562 236.708 74.9453C237.367 74.9317 238.356 72.0945 238.458 71.4429C238.523 71.0438 238.794 69.3279 238.063 69.48Z" fill="#FFF2E3"/>
<path d="M172.567 75.3416C172.15 75.0077 173.704 74.5923 173.914 74.4538C175.422 73.4466 177.231 70.3868 178.578 69.0048C178.908 69.0211 180.548 68.0301 180.502 68.7958C180.438 69.8763 179.172 74.1063 179.561 74.7281C179.693 74.9398 180.51 74.7362 180.309 75.3416H176.438C176.271 74.6683 177.147 74.986 177.422 74.6276C177.561 74.443 177.903 73.1126 177.793 72.9986C177.69 72.8954 176.43 72.9823 176.134 73.1805C175.865 73.357 175.193 74.3425 175.279 74.6493C175.365 74.9561 176.037 74.7824 175.857 75.3444C175.365 75.2521 172.723 75.4693 172.567 75.3444V75.3416ZM177.957 72.385C178.094 72.2954 178.325 70.7831 178.368 70.4573L176.822 72.3144C176.997 72.4773 177.83 72.4664 177.957 72.385Z" fill="#FFF2E3"/>
<path d="M141.801 75.3417C142.016 74.8231 142.626 74.929 142.925 74.424C143.094 74.1389 144.344 69.8329 144.325 69.5723C144.288 69.0917 143.395 69.0754 143.737 68.7008C143.933 68.489 146.71 68.7279 147.323 68.7062C147.766 68.6926 148.804 68.231 148.941 68.8121C148.957 68.8854 148.626 70.2157 148.564 70.2564C147.823 70.7424 148.134 69.4555 147.608 69.184C146.333 68.5243 145.874 70.4845 145.702 71.3723C145.613 71.8311 146.433 71.6682 146.696 71.5895C146.946 71.5162 147.591 70.6094 147.798 70.8483C147.868 70.9298 147.478 72.9117 147.401 72.985C147.371 73.0122 146.667 73.0258 146.64 72.9986C146.535 72.8927 147.059 71.7579 145.602 72.2438C145.188 72.3796 144.753 74.6059 144.898 74.7579C145.008 74.872 146.659 74.7688 146.973 74.5054C147.151 74.3561 147.527 73.1154 147.995 73.5851C148.242 73.8348 147.667 75.3444 147.317 75.3444H141.804L141.801 75.3417Z" fill="#FFF2E3"/>
<path d="M88.9793 75.3417C89.1943 74.8231 89.8045 74.929 90.1029 74.424C90.2723 74.1389 91.5222 69.8329 91.5034 69.5723C91.4658 69.0917 90.5733 69.0754 90.9147 68.7008C91.111 68.489 93.8878 68.7279 94.5007 68.7062C94.9442 68.6926 95.9819 68.231 96.1189 68.8121C96.1351 68.8854 95.8044 70.2157 95.7426 70.2564C95.0007 70.7424 95.3125 69.4555 94.7856 69.184C93.5115 68.5243 93.0518 70.4845 92.8798 71.3723C92.791 71.8311 93.6109 71.6682 93.8744 71.5895C94.1244 71.5162 94.7695 70.6094 94.9765 70.8483C95.0464 70.9298 94.6566 72.9117 94.5787 72.985C94.5491 73.0122 93.8448 73.0258 93.8179 72.9986C93.7131 72.8927 94.2373 71.7579 92.7803 72.2438C92.3663 72.3796 91.9308 74.6059 92.076 74.7579C92.1862 74.872 93.8367 74.7688 94.1512 74.5054C94.3287 74.3561 94.705 73.1154 95.1727 73.5851C95.42 73.8348 94.8448 75.3444 94.4953 75.3444H88.982L88.9793 75.3417Z" fill="#FFF2E3"/>
<path d="M221.518 68.698C221.652 68.8283 220.848 70.7533 220.647 70.8456C219.964 71.1578 220.23 70.2917 220.077 69.86C219.561 68.3994 217.736 69.0998 218.373 70.5985C218.717 71.4076 219.87 71.5244 220.12 72.7488C220.515 74.6955 218.703 75.6946 216.988 75.5209C216.625 75.4828 216.311 75.2439 215.98 75.2059C215.76 75.1815 215.22 75.4231 215.136 75.3389C215.013 75.2113 215.55 73.1153 215.814 72.9959C216.504 72.6809 216.257 73.7778 216.472 74.2855C216.827 75.1272 218.15 75.138 218.394 74.4294C218.937 72.8466 216.776 72.3117 216.577 70.8564C216.424 69.7297 217.486 68.6763 218.537 68.5134C218.824 68.47 221.416 68.5921 221.523 68.698H221.518Z" fill="#FFF2E3"/>
<path d="M134.836 75.3417C134.387 74.9942 135.565 74.8286 135.691 74.7417C136.347 74.2801 136.992 70.3135 137.543 69.3795C136.788 68.6248 135.196 70.6013 134.839 70.2619C134.742 70.1696 135.608 68.5949 135.707 68.5026C136.196 68.0465 136.922 68.6383 137.635 68.7089C138.347 68.7795 139.648 68.7659 140.355 68.7008C140.755 68.6628 142.003 68.1361 142.191 68.3098C142.304 68.413 141.282 70.452 141.126 70.4547C140.672 70.4601 140.678 69.3442 140.635 69.2981C140.487 69.1433 139.543 69.2519 139.304 69.594C139.169 69.7868 137.968 73.7589 137.941 74.0955C137.855 75.1462 138.524 74.6168 138.516 75.3444C137.976 75.2412 135.019 75.4829 134.839 75.3444L134.836 75.3417Z" fill="#FFF2E3"/>
<path d="M183.4 75.3417C182.951 74.9942 184.129 74.8286 184.255 74.7417C184.911 74.2801 185.556 70.3135 186.107 69.3795C185.352 68.6248 183.76 70.6013 183.403 70.2619C183.306 70.1696 184.172 68.5949 184.271 68.5026C184.76 68.0465 185.486 68.6383 186.198 68.7089C186.911 68.7795 188.212 68.7659 188.919 68.7008C189.319 68.6628 190.567 68.1361 190.755 68.3098C190.868 68.413 189.846 70.452 189.69 70.4547C189.236 70.4601 189.241 69.3442 189.198 69.2981C189.051 69.1433 188.107 69.2519 187.868 69.594C187.733 69.7868 186.532 73.7589 186.505 74.0955C186.419 75.1462 187.088 74.6168 187.08 75.3444C186.54 75.2412 183.583 75.4829 183.403 75.3444L183.4 75.3417Z" fill="#FFF2E3"/>
<path d="M251.122 72.0185C251.241 72.1189 252.918 71.0438 253.542 72.4149C254.587 74.7172 249.716 77.006 248.888 74.3751C248.214 72.2357 250.894 69.7379 252.673 68.9912C252.904 68.8935 254.824 68.193 254.797 68.7958C254.792 68.9098 253.235 69.67 252.864 69.966C252.633 70.1506 250.95 71.8665 251.125 72.0185H251.122ZM250.568 74.7254C251.179 75.6892 252.8 73.3543 251.703 72.6891C251.595 72.6239 250.595 72.7706 250.552 72.8113C250.485 72.8792 250.509 74.633 250.568 74.7254Z" fill="#FFF2E3"/>
<path d="M96.912 75.3417L97.9791 74.1715C98.1942 73.7588 99.377 69.9225 99.3958 69.5315C99.4173 69.0754 98.4845 69.0999 98.8474 68.7008C98.9657 68.5704 102.189 68.5894 102.329 68.7008C102.775 69.0483 101.603 69.2112 101.476 69.3008C100.952 69.6673 100.138 73.5878 99.8098 74.462C99.7184 75.005 101.087 74.7579 101.372 74.6684C101.99 74.4729 102.562 73.2022 102.812 73.1968C103.498 73.1832 102.619 75.3417 102.232 75.3417H96.912Z" fill="#FFF2E3"/>
<path d="M241.061 75.3417C240.84 75.1489 241.278 74.8937 241.386 74.7933C242.063 74.1634 246.464 71.1877 244.794 70.0528C244.144 69.6103 243.87 70.2619 243.483 70.4655C241.827 71.3452 242.889 69.3225 244.149 68.9886C245.012 68.7605 246.34 68.7442 246.765 69.6836C247.644 71.6221 243.173 73.7751 243.184 74.0738C243.192 74.2557 244.738 74.1878 244.983 74.1308C245.407 74.0331 246.171 73.1099 246.474 73.3923C246.601 73.5091 245.523 75.3444 245.41 75.3444C244.778 75.3444 241.222 75.4883 241.055 75.3444L241.061 75.3417Z" fill="#FFF2E3"/>
<path d="M226.547 75.3417C227.394 74.0846 231.096 72.1841 230.58 70.4031C230.2 69.0971 229.037 70.5714 228.582 70.6555C227.66 70.8293 229.002 69.2465 229.499 69.0401C230.413 68.6655 232.254 68.717 232.367 69.9632C232.545 71.9316 229.953 72.9117 228.867 74.1661C229.424 74.1063 230.144 74.2855 230.666 74.1281C230.956 74.0412 231.614 73.042 231.961 73.3869C232.168 73.5932 231.077 75.339 230.897 75.339H226.542L226.547 75.3417Z" fill="#FFF2E3"/>
<path d="M190.561 75.3417C190.091 74.9643 191.314 74.7987 191.384 74.758C191.634 74.6114 193.161 69.7297 193.061 69.4039C192.983 69.1487 192.161 69.0619 192.494 68.7008C192.803 68.3668 195.338 68.8881 195.975 68.7008C195.999 69.3524 195.282 69.0103 194.927 69.6917C194.714 70.099 193.317 74.5326 193.47 74.7471C193.585 74.9073 194.448 74.7444 194.236 75.3444C193.704 75.2467 190.725 75.4774 190.559 75.3444L190.561 75.3417Z" fill="#FFF2E3"/>
<path d="M127.484 75.3417C127.748 74.7932 128.387 74.91 128.691 74.3127C129.323 73.0719 129.527 70.8673 130.167 69.5342C130.274 69.0863 129.428 69.2166 129.616 68.7958C129.869 68.2337 132.43 68.9424 133.097 68.698C132.879 69.2139 132.272 69.1107 131.973 69.613C131.807 69.8953 130.75 73.3108 130.67 73.767C130.618 74.0547 130.503 74.3344 130.602 74.633C130.723 75.0023 131.344 74.7851 131.164 75.3389H127.487L127.484 75.3417Z" fill="#FFF2E3"/>
</g>
<defs>
<filter id="filter0_dd_356_759" x="0" y="0" width="269" height="98" filterUnits="userSpaceOnUse" color-interpolation-filters="sRGB">
<feFlood flood-opacity="0" result="BackgroundImageFix"/>
<feColorMatrix in="SourceAlpha" type="matrix" values="0 0 0 0 0 0 0 0 0 0 0 0 0 0 0 0 0 0 127 0" result="hardAlpha"/>
<feOffset dy="4"/>
<feGaussianBlur stdDeviation="2"/>
<feComposite in2="hardAlpha" operator="out"/>
<feColorMatrix type="matrix" values="0 0 0 0 0 0 0 0 0 0 0 0 0 0 0 0 0 0 0.25 0"/>
<feBlend mode="normal" in2="BackgroundImageFix" result="effect1_dropShadow_356_759"/>
<feColorMatrix in="SourceAlpha" type="matrix" values="0 0 0 0 0 0 0 0 0 0 0 0 0 0 0 0 0 0 127 0" result="hardAlpha"/>
<feOffset dy="6"/>
<feGaussianBlur stdDeviation="5"/>
<feComposite in2="hardAlpha" operator="out"/>
<feColorMatrix type="matrix" values="0 0 0 0 0 0 0 0 0 0 0 0 0 0 0 0 0 0 0.25 0"/>
<feBlend mode="normal" in2="effect1_dropShadow_356_759" result="effect2_dropShadow_356_759"/>
<feBlend mode="normal" in="SourceGraphic" in2="effect2_dropShadow_356_759" result="shape"/>
</filter>
</defs>
</svg>
